<svg width="252" height="40" viewBox="0 0 252 40" fill="none" xmlns="http://www.w3.org/2000/svg">
<path d="M12.998 13.7227L8.14453 28H4.84375L0 13.7227H3.05664L5.74219 22.2188C5.78776 22.362 5.86263 22.6322 5.9668 23.0293C6.07096 23.4199 6.17513 23.8366 6.2793 24.2793C6.38997 24.7155 6.46484 25.0768 6.50391 25.3633C6.54297 25.0768 6.61133 24.7155 6.70898 24.2793C6.81315 23.8431 6.91406 23.4297 7.01172 23.0391C7.11589 22.6419 7.19076 22.3685 7.23633 22.2188L9.94141 13.7227H12.998ZM13.0078 17.082H16.2695L18.3301 23.2246C18.3952 23.4199 18.4505 23.6185 18.4961 23.8203C18.5417 24.0221 18.5807 24.2305 18.6133 24.4453C18.6458 24.6602 18.6719 24.8848 18.6914 25.1191H18.75C18.7891 24.7676 18.8411 24.4388 18.9062 24.1328C18.9779 23.8268 19.0658 23.5241 19.1699 23.2246L21.1914 17.082H24.3848L19.7656 29.3965C19.4857 30.1517 19.1211 30.7799 18.6719 31.2812C18.2227 31.7891 17.7051 32.1699 17.1191 32.4238C16.5397 32.6777 15.9017 32.8047 15.2051 32.8047C14.8665 32.8047 14.5736 32.7852 14.3262 32.7461C14.0788 32.7135 13.8672 32.6777 13.6914 32.6387V30.2754C13.8281 30.3079 14.0007 30.3372 14.209 30.3633C14.4173 30.3893 14.6354 30.4023 14.8633 30.4023C15.2799 30.4023 15.638 30.3145 15.9375 30.1387C16.237 29.9629 16.4876 29.7253 16.6895 29.4258C16.8913 29.1328 17.0508 28.8105 17.168 28.459L17.3438 27.9219L13.0078 17.082ZM30.5566 25.8223C30.8822 25.8223 31.1979 25.7897 31.5039 25.7246C31.8164 25.6595 32.1257 25.5781 32.4316 25.4805V27.6973C32.1126 27.8405 31.7155 27.9577 31.2402 28.0488C30.7715 28.1465 30.2572 28.1953 29.6973 28.1953C29.0462 28.1953 28.4603 28.0911 27.9395 27.8828C27.4251 27.668 27.0182 27.3001 26.7188 26.7793C26.4258 26.252 26.2793 25.5195 26.2793 24.582V19.3184H24.8535V18.0586L26.4941 17.0625L27.3535 14.7578H29.2578V17.082H32.3145V19.3184H29.2578V24.582C29.2578 24.9987 29.375 25.3112 29.6094 25.5195C29.8503 25.7214 30.166 25.8223 30.5566 25.8223ZM37.2461 28L33.0859 17.082H36.2012L38.3105 23.3027C38.4277 23.6673 38.5189 24.0514 38.584 24.4551C38.6556 24.8587 38.7044 25.2201 38.7305 25.5391H38.8086C38.8281 25.194 38.8737 24.8262 38.9453 24.4355C39.0234 24.0449 39.1243 23.6673 39.248 23.3027L41.3477 17.082H44.4629L40.3027 28H37.2461ZM55.957 22.5215C55.957 23.4329 55.8333 24.2402 55.5859 24.9434C55.3451 25.6465 54.9902 26.2422 54.5215 26.7305C54.0592 27.2122 53.4993 27.5768 52.8418 27.8242C52.1908 28.0716 51.4551 28.1953 50.6348 28.1953C49.8665 28.1953 49.1602 28.0716 48.5156 27.8242C47.8776 27.5768 47.321 27.2122 46.8457 26.7305C46.377 26.2422 46.0124 25.6465 45.752 24.9434C45.498 24.2402 45.3711 23.4329 45.3711 22.5215C45.3711 21.3105 45.5859 20.2852 46.0156 19.4453C46.4453 18.6055 47.0573 17.9674 47.8516 17.5312C48.6458 17.0951 49.5931 16.877 50.6934 16.877C51.7155 16.877 52.6204 17.0951 53.4082 17.5312C54.2025 17.9674 54.8242 18.6055 55.2734 19.4453C55.7292 20.2852 55.957 21.3105 55.957 22.5215ZM48.4082 22.5215C48.4082 23.2376 48.4863 23.8398 48.6426 24.3281C48.7988 24.8164 49.043 25.1842 49.375 25.4316C49.707 25.679 50.14 25.8027 50.6738 25.8027C51.2012 25.8027 51.6276 25.679 51.9531 25.4316C52.2852 25.1842 52.526 24.8164 52.6758 24.3281C52.832 23.8398 52.9102 23.2376 52.9102 22.5215C52.9102 21.7988 52.832 21.1999 52.6758 20.7246C52.526 20.2428 52.2852 19.8815 51.9531 19.6406C51.6211 19.3997 51.1882 19.2793 50.6543 19.2793C49.8665 19.2793 49.2936 19.5495 48.9355 20.0898C48.584 20.6302 48.4082 21.4408 48.4082 22.5215ZM64.5117 16.877C64.6615 16.877 64.834 16.8867 65.0293 16.9062C65.2311 16.9193 65.3939 16.9388 65.5176 16.9648L65.293 19.7578C65.1953 19.7253 65.0553 19.7025 64.873 19.6895C64.6973 19.6699 64.5443 19.6602 64.4141 19.6602C64.0299 19.6602 63.6556 19.709 63.291 19.8066C62.9329 19.9043 62.6107 20.0638 62.3242 20.2852C62.0378 20.5 61.8099 20.7865 61.6406 21.1445C61.4779 21.4961 61.3965 21.929 61.3965 22.4434V28H58.418V17.082H60.6738L61.1133 18.918H61.2598C61.4746 18.5469 61.7415 18.2083 62.0605 17.9023C62.3861 17.5898 62.7539 17.3424 63.1641 17.1602C63.5807 16.9714 64.0299 16.877 64.5117 16.877ZM60.2344 15.8809C60.0521 15.5814 59.8112 15.2526 59.5117 14.8945C59.2122 14.5299 58.903 14.1751 58.584 13.8301C58.265 13.485 57.9818 13.1888 57.7344 12.9414V12.6777H59.7168C60.0618 12.8991 60.4329 13.153 60.8301 13.4395C61.2272 13.7194 61.6016 14.0384 61.9531 14.3965C62.2982 14.0384 62.6758 13.7161 63.0859 13.4297C63.5026 13.1367 63.8867 12.8861 64.2383 12.6777H66.2109V12.9414C65.9766 13.1823 65.6999 13.4753 65.3809 13.8203C65.0618 14.1654 64.7493 14.5202 64.4434 14.8848C64.1439 15.2493 63.8997 15.5814 63.7109 15.8809H60.2344ZM70.4785 17.082V28H67.5V17.082H70.4785ZM68.9941 12.8047C69.4368 12.8047 69.8177 12.9089 70.1367 13.1172C70.4557 13.319 70.6152 13.6999 70.6152 14.2598C70.6152 14.8132 70.4557 15.1973 70.1367 15.4121C69.8177 15.6204 69.4368 15.7246 68.9941 15.7246C68.5449 15.7246 68.1608 15.6204 67.8418 15.4121C67.5293 15.1973 67.373 14.8132 67.373 14.2598C67.373 13.6999 67.5293 13.319 67.8418 13.1172C68.1608 12.9089 68.5449 12.8047 68.9941 12.8047ZM76.5918 28H73.6133V12.8047H76.5918V28Z" fill="#5B5C5D"/>
<path d="M146.998 13.7227L142.145 28H138.844L134 13.7227H137.057L139.742 22.2188C139.788 22.362 139.863 22.6322 139.967 23.0293C140.071 23.4199 140.175 23.8366 140.279 24.2793C140.39 24.7155 140.465 25.0768 140.504 25.3633C140.543 25.0768 140.611 24.7155 140.709 24.2793C140.813 23.8431 140.914 23.4297 141.012 23.0391C141.116 22.6419 141.191 22.3685 141.236 22.2188L143.941 13.7227H146.998ZM151.549 17.082V28H148.57V17.082H151.549ZM150.064 12.8047C150.507 12.8047 150.888 12.9089 151.207 13.1172C151.526 13.319 151.686 13.6999 151.686 14.2598C151.686 14.8132 151.526 15.1973 151.207 15.4121C150.888 15.6204 150.507 15.7246 150.064 15.7246C149.615 15.7246 149.231 15.6204 148.912 15.4121C148.6 15.1973 148.443 14.8132 148.443 14.2598C148.443 13.6999 148.6 13.319 148.912 13.1172C149.231 12.9089 149.615 12.8047 150.064 12.8047ZM160.777 16.877C160.927 16.877 161.1 16.8867 161.295 16.9062C161.497 16.9193 161.66 16.9388 161.783 16.9648L161.559 19.7578C161.461 19.7253 161.321 19.7025 161.139 19.6895C160.963 19.6699 160.81 19.6602 160.68 19.6602C160.296 19.6602 159.921 19.709 159.557 19.8066C159.199 19.9043 158.876 20.0638 158.59 20.2852C158.303 20.5 158.076 20.7865 157.906 21.1445C157.743 21.4961 157.662 21.929 157.662 22.4434V28H154.684V17.082H156.939L157.379 18.918H157.525C157.74 18.5469 158.007 18.2083 158.326 17.9023C158.652 17.5898 159.02 17.3424 159.43 17.1602C159.846 16.9714 160.296 16.877 160.777 16.877ZM166.959 32.8047C165.436 32.8047 164.27 32.5378 163.463 32.0039C162.662 31.4766 162.262 30.7344 162.262 29.7773C162.262 29.1198 162.467 28.5697 162.877 28.127C163.287 27.6842 163.889 27.3685 164.684 27.1797C164.378 27.0495 164.111 26.8379 163.883 26.5449C163.655 26.2454 163.541 25.9297 163.541 25.5977C163.541 25.181 163.661 24.8359 163.902 24.5625C164.143 24.2826 164.492 24.0091 164.947 23.7422C164.374 23.4948 163.919 23.0977 163.58 22.5508C163.248 22.0039 163.082 21.3594 163.082 20.6172C163.082 19.8229 163.255 19.1491 163.6 18.5957C163.951 18.0358 164.459 17.6094 165.123 17.3164C165.794 17.0234 166.607 16.877 167.564 16.877C167.766 16.877 168.001 16.89 168.268 16.916C168.535 16.9421 168.779 16.9714 169 17.0039C169.228 17.0365 169.381 17.0625 169.459 17.082H173.268V18.5957L171.559 19.0352C171.715 19.276 171.832 19.5332 171.91 19.8066C171.988 20.0801 172.027 20.3698 172.027 20.6758C172.027 21.8477 171.617 22.7624 170.797 23.4199C169.983 24.071 168.85 24.3965 167.398 24.3965C167.053 24.377 166.728 24.3509 166.422 24.3184C166.272 24.4355 166.158 24.5592 166.08 24.6895C166.002 24.8197 165.963 24.9564 165.963 25.0996C165.963 25.2428 166.021 25.3633 166.139 25.4609C166.262 25.5521 166.445 25.6237 166.686 25.6758C166.933 25.7214 167.239 25.7441 167.604 25.7441H169.459C170.657 25.7441 171.568 26.0013 172.193 26.5156C172.825 27.0299 173.141 27.7852 173.141 28.7812C173.141 30.0573 172.607 31.0469 171.539 31.75C170.478 32.4531 168.951 32.8047 166.959 32.8047ZM167.086 30.8613C167.796 30.8613 168.404 30.793 168.912 30.6562C169.426 30.526 169.82 30.3372 170.094 30.0898C170.367 29.849 170.504 29.5592 170.504 29.2207C170.504 28.9473 170.423 28.7292 170.26 28.5664C170.104 28.4102 169.863 28.2995 169.537 28.2344C169.218 28.1693 168.808 28.1367 168.307 28.1367H166.764C166.399 28.1367 166.07 28.1953 165.777 28.3125C165.491 28.4297 165.263 28.5924 165.094 28.8008C164.924 29.0156 164.84 29.263 164.84 29.543C164.84 29.9531 165.035 30.2754 165.426 30.5098C165.823 30.7441 166.376 30.8613 167.086 30.8613ZM167.564 22.5801C168.124 22.5801 168.535 22.4076 168.795 22.0625C169.055 21.7174 169.186 21.2487 169.186 20.6562C169.186 19.9987 169.049 19.5072 168.775 19.1816C168.508 18.8496 168.105 18.6836 167.564 18.6836C167.018 18.6836 166.607 18.8496 166.334 19.1816C166.061 19.5072 165.924 19.9987 165.924 20.6562C165.924 21.2487 166.057 21.7174 166.324 22.0625C166.598 22.4076 167.011 22.5801 167.564 22.5801ZM178.053 17.082V28H175.074V17.082H178.053ZM176.568 12.8047C177.011 12.8047 177.392 12.9089 177.711 13.1172C178.03 13.319 178.189 13.6999 178.189 14.2598C178.189 14.8132 178.03 15.1973 177.711 15.4121C177.392 15.6204 177.011 15.7246 176.568 15.7246C176.119 15.7246 175.735 15.6204 175.416 15.4121C175.104 15.1973 174.947 14.8132 174.947 14.2598C174.947 13.6999 175.104 13.319 175.416 13.1172C175.735 12.9089 176.119 12.8047 176.568 12.8047ZM183.424 22.4238L179.908 17.082H183.287L185.406 20.5586L187.545 17.082H190.924L187.369 22.4238L191.09 28H187.701L185.406 24.2598L183.102 28H179.723L183.424 22.4238ZM202.672 22.5215C202.672 23.4329 202.548 24.2402 202.301 24.9434C202.06 25.6465 201.705 26.2422 201.236 26.7305C200.774 27.2122 200.214 27.5768 199.557 27.8242C198.906 28.0716 198.17 28.1953 197.35 28.1953C196.581 28.1953 195.875 28.0716 195.23 27.8242C194.592 27.5768 194.036 27.2122 193.561 26.7305C193.092 26.2422 192.727 25.6465 192.467 24.9434C192.213 24.2402 192.086 23.4329 192.086 22.5215C192.086 21.3105 192.301 20.2852 192.73 19.4453C193.16 18.6055 193.772 17.9674 194.566 17.5312C195.361 17.0951 196.308 16.877 197.408 16.877C198.43 16.877 199.335 17.0951 200.123 17.5312C200.917 17.9674 201.539 18.6055 201.988 19.4453C202.444 20.2852 202.672 21.3105 202.672 22.5215ZM195.123 22.5215C195.123 23.2376 195.201 23.8398 195.357 24.3281C195.514 24.8164 195.758 25.1842 196.09 25.4316C196.422 25.679 196.855 25.8027 197.389 25.8027C197.916 25.8027 198.342 25.679 198.668 25.4316C199 25.1842 199.241 24.8164 199.391 24.3281C199.547 23.8398 199.625 23.2376 199.625 22.5215C199.625 21.7988 199.547 21.1999 199.391 20.7246C199.241 20.2428 199 19.8815 198.668 19.6406C198.336 19.3997 197.903 19.2793 197.369 19.2793C196.581 19.2793 196.008 19.5495 195.65 20.0898C195.299 20.6302 195.123 21.4408 195.123 22.5215ZM204.713 26.6035C204.713 25.9915 204.879 25.5618 205.211 25.3145C205.549 25.0671 205.956 24.9434 206.432 24.9434C206.894 24.9434 207.291 25.0671 207.623 25.3145C207.962 25.5618 208.131 25.9915 208.131 26.6035C208.131 27.1895 207.962 27.6126 207.623 27.873C207.291 28.1335 206.894 28.2637 206.432 28.2637C205.956 28.2637 205.549 28.1335 205.211 27.873C204.879 27.6126 204.713 27.1895 204.713 26.6035ZM215.27 28.1953C214.189 28.1953 213.268 28 212.506 27.6094C211.744 27.2122 211.165 26.6003 210.768 25.7734C210.37 24.9466 210.172 23.8887 210.172 22.5996C210.172 21.265 210.396 20.1777 210.846 19.3379C211.301 18.4915 211.93 17.8698 212.73 17.4727C213.538 17.0755 214.472 16.877 215.533 16.877C216.288 16.877 216.939 16.9518 217.486 17.1016C218.04 17.2448 218.521 17.4173 218.932 17.6191L218.053 19.9238C217.584 19.735 217.148 19.582 216.744 19.4648C216.34 19.3411 215.937 19.2793 215.533 19.2793C215.012 19.2793 214.579 19.403 214.234 19.6504C213.889 19.8913 213.632 20.2559 213.463 20.7441C213.294 21.2324 213.209 21.8444 213.209 22.5801C213.209 23.3027 213.3 23.9017 213.482 24.377C213.665 24.8522 213.928 25.207 214.273 25.4414C214.618 25.6693 215.038 25.7832 215.533 25.7832C216.152 25.7832 216.702 25.7018 217.184 25.5391C217.665 25.3698 218.134 25.1354 218.59 24.8359V27.3848C218.134 27.6712 217.656 27.8763 217.154 28C216.66 28.1302 216.031 28.1953 215.27 28.1953ZM231.051 22.5215C231.051 23.4329 230.927 24.2402 230.68 24.9434C230.439 25.6465 230.084 26.2422 229.615 26.7305C229.153 27.2122 228.593 27.5768 227.936 27.8242C227.285 28.0716 226.549 28.1953 225.729 28.1953C224.96 28.1953 224.254 28.0716 223.609 27.8242C222.971 27.5768 222.415 27.2122 221.939 26.7305C221.471 26.2422 221.106 25.6465 220.846 24.9434C220.592 24.2402 220.465 23.4329 220.465 22.5215C220.465 21.3105 220.68 20.2852 221.109 19.4453C221.539 18.6055 222.151 17.9674 222.945 17.5312C223.74 17.0951 224.687 16.877 225.787 16.877C226.809 16.877 227.714 17.0951 228.502 17.5312C229.296 17.9674 229.918 18.6055 230.367 19.4453C230.823 20.2852 231.051 21.3105 231.051 22.5215ZM223.502 22.5215C223.502 23.2376 223.58 23.8398 223.736 24.3281C223.893 24.8164 224.137 25.1842 224.469 25.4316C224.801 25.679 225.234 25.8027 225.768 25.8027C226.295 25.8027 226.721 25.679 227.047 25.4316C227.379 25.1842 227.62 24.8164 227.77 24.3281C227.926 23.8398 228.004 23.2376 228.004 22.5215C228.004 21.7988 227.926 21.1999 227.77 20.7246C227.62 20.2428 227.379 19.8815 227.047 19.6406C226.715 19.3997 226.282 19.2793 225.748 19.2793C224.96 19.2793 224.387 19.5495 224.029 20.0898C223.678 20.6302 223.502 21.4408 223.502 22.5215ZM246.334 16.877C247.571 16.877 248.505 17.196 249.137 17.834C249.775 18.4655 250.094 19.4811 250.094 20.8809V28H247.105V21.623C247.105 20.8418 246.972 20.2526 246.705 19.8555C246.438 19.4583 246.025 19.2598 245.465 19.2598C244.677 19.2598 244.117 19.543 243.785 20.1094C243.453 20.6693 243.287 21.4733 243.287 22.5215V28H240.309V21.623C240.309 21.1022 240.25 20.666 240.133 20.3145C240.016 19.9629 239.837 19.6992 239.596 19.5234C239.355 19.3477 239.046 19.2598 238.668 19.2598C238.115 19.2598 237.678 19.3997 237.359 19.6797C237.047 19.9531 236.822 20.36 236.686 20.9004C236.555 21.4342 236.49 22.0885 236.49 22.8633V28H233.512V17.082H235.787L236.188 18.4785H236.354C236.575 18.1009 236.852 17.7949 237.184 17.5605C237.522 17.3262 237.893 17.1536 238.297 17.043C238.701 16.9323 239.111 16.877 239.527 16.877C240.328 16.877 241.005 17.0072 241.559 17.2676C242.118 17.528 242.548 17.9316 242.848 18.4785H243.111C243.437 17.9186 243.896 17.5117 244.488 17.2578C245.087 17.0039 245.702 16.877 246.334 16.877Z" fill="#5B5C5D"/>
<path d="M109.897 40L94.7994 0H96.5822L111.68 40H109.897ZM102.097 40L87 0H88.7827L103.88 40H102.097ZM105.997 40L90.8997 0H92.6825L107.78 40H105.997ZM110.955 32.4876L110.064 30.0498L121.318 0H123.1L110.955 32.4876ZM109.006 27.2637L108.114 24.9254L117.418 0H119.201L109.006 27.2637ZM112.905 37.5622L112.014 35.2736L125.217 0H127L112.905 37.5622Z" fill="#5B5C5D"/>
</svg>
